# xmcd CD database file
#
# Track frame offsets:
#	150
#	21882
#	41946
#	59818
#	79719
#	96890
#	117528
#	142658
#	162613
#	187740
#	210221
#	226949
#
# Disc length: 3136 seconds
#
# Revision: 0
# Processed by: cddbd v1.5.2PL0 Copyright (c) Steve Scherf et al.
# Submitted via: CDex 1.51
#
DISCID=9e0c3e0c
DTITLE=Melody Mann - Hard Road
DYEAR=2006
DGENRE=Blues
TTITLE0=Inza's Lonsome Coyote Saloon
TTITLE1=My Way Home
TTITLE2=Hard Road
TTITLE3=Higher State of Unconsciousness
TTITLE4=Some Time to Get Together
TTITLE5=Omnipresent Mama
TTITLE6=Grab Yourself (Some Happines)
TTITLE7=Take Me Higher
TTITLE8=You and I
TTITLE9=Another Day
TTITLE10=Dirty Little Secrets
TTITLE11=Some TIme to Get Together (Reprise)
EXTD=YEAR: 2006
EXTT0=
EXTT1=
EXTT2=
EXTT3=
EXTT4=
EXTT5=
EXTT6=
EXTT7=
EXTT8=
EXTT9=
EXTT10=
EXTT11=
PLAYORDER=
